<svg xmlns="http://www.w3.org/2000/svg" width="92.104" height="84.786" viewBox="0 0 92.104 84.786">
  <g id="Group_137" data-name="Group 137" transform="translate(633.5 -5022)">
    <path id="Path_118" data-name="Path 118" d="M324.412,324.885H295.66L296.843,322h26.464Q323.862,323.442,324.412,324.885Z" transform="translate(-902.879 4751.61)"/>
    <g id="Group_46" data-name="Group 46" transform="translate(-633.5 5022)">
      <path id="Path_121" data-name="Path 121" d="M333.1,298.484v.962H307q-5.135-14.936-10.962-30.291-.548-1.442-1.106-2.885c-.13-.341-.26-.688-.394-1.029q-3.137-8.157-6.486-16.415-3.1-7.645-6.275-15.1-6.08,14.871-12.164,29.738l-.664,1.63c-.159.394-.322.784-.481,1.178l-1.183,2.885q-6.2,15.138-12.4,30.291H241v-.962c6.957-.716,10.554-3.717,15.593-14.15,8.275-17.266,27.1-57.081,32.137-69.438l.721-.236c4.077,11.15,19.425,46.768,28.06,66.678C323.271,294.287,325.43,297.527,333.1,298.484Z" transform="translate(-241 -214.66)"/>
    </g>
  </g>
</svg>
