<svg xmlns="http://www.w3.org/2000/svg" width="47.528" height="43.753" viewBox="0 0 47.528 43.753">
  <g id="Group_138" data-name="Group 138" transform="translate(411.372 -5063.032)">
    <g id="Group_45" data-name="Group 45" transform="translate(-411.372 5063.032)">
      <path id="Path_120" data-name="Path 120" d="M750.518,343.258v.5H737.046q-2.286-6.65-4.837-13.463-.541-1.435-1.091-2.885-1.854-4.854-3.851-9.775-1.6-3.945-3.236-7.789-3.592,8.784-7.183,17.564l-1.183,2.885q-2.748,6.729-5.505,13.463H702.99v-.5c3.592-.37,5.448-1.918,8.044-7.3,4.274-8.909,13.987-29.459,16.588-35.83l.37-.125c2.106,5.755,10.025,24.137,14.482,34.407C745.445,341.095,746.561,342.763,750.518,343.258Z" transform="translate(-702.99 -300)"/>
    </g>
    <path id="Path_124" data-name="Path 124" d="M745.895,359.885H729.35L730.533,357H744.8Q745.351,358.45,745.895,359.885Z" transform="translate(-1128.047 4733.438)"/>
  </g>
</svg>
