<svg xmlns="http://www.w3.org/2000/svg" viewBox="0 0 183.98 52.43"><defs><style>.cls-1,.cls-2{fill:#121e28;}.cls-2{font-size:14.37px;font-family:FuturaPT-Book, Futura PT;letter-spacing:0.1em;}.cls-3{letter-spacing:0.08em;}</style></defs><g id="Layer_2" data-name="Layer 2"><g id="Layer_1-2" data-name="Layer 1"><path class="cls-1" d="M68.43,30.4C63,12.57,36.58,4.67,21.73,12a32,32,0,0,1,21.55,1.52C56.07,19.25,60,31.6,60.53,33.51,57,26.78,41,14.6,26,20.72a22.26,22.26,0,0,1,16.13,2.93A22.31,22.31,0,0,1,51.71,37c-2.09-4.43-11.94-12.63-21.64-8.91A13.59,13.59,0,0,1,41,31.7a13.06,13.06,0,0,1,3.68,8.12c-1-2.19-6.74-6.68-11.48-5.79,11.54,5.3,1.68,17.07-8.5,1.94-2.42-3.1-8.12-3.28-9.53-2.6a9.32,9.32,0,0,0-4.72,3c-1.22,1.51-.62,2-1.79,3-3,2.11-5.63,2.12-4.61,6.74.58-.39.28-.85.4-1.61s1.75-.2,2.35-.33a4.1,4.1,0,0,0,1.81-.52c3.17-.78,6.88,3,6.92,5.45,0,0,.66,4.41-4.29,3C-4.16,47.46-.88,27.26,4.35,17.66,20.53-11.63,65.08-2.5,68.43,30.4Z"/><circle class="cls-1" cx="15.51" cy="39.69" r="0.98"/><path class="cls-1" d="M96.6,5.2,93.74,8.05v0h0L93.66,8a9,9,0,0,0-7.25-3.41c-6.52,0-12,4.93-12,13,0,6.81,4.34,13.14,12,13.14a9.5,9.5,0,0,0,7.31-3.24l0,0,.06-.07v.13l2.45,2.45H99.5V5.2ZM87.11,25.5c-4.16,0-6.86-3.58-6.86-7.86S83,9.71,87.11,9.71c3.64,0,7,2.59,7,8C94.1,22.86,90.75,25.5,87.11,25.5Z"/><path class="cls-1" d="M156.67,5.2l-2.85,2.85v0h0l-.08-.1a9,9,0,0,0-7.25-3.41c-6.51,0-12,4.93-12,13,0,6.81,4.34,13.14,12,13.14a9.5,9.5,0,0,0,7.31-3.24l0,0a.46.46,0,0,0,.07-.07v.13l2.45,2.45h3.3V5.2Zm-9.48,20.3c-4.17,0-6.87-3.58-6.87-7.86s2.7-7.93,6.87-7.93c3.63,0,7,2.59,7,8C154.17,22.86,150.82,25.5,147.19,25.5Z"/><path class="cls-1" d="M120.1,9.71a9.69,9.69,0,0,1,7,3.06V6.31a13.23,13.23,0,0,0-6.75-1.76c-4.87,0-8,1.7-9.92,3.64a13.19,13.19,0,0,0-3.75,9.56,14.75,14.75,0,0,0,.64,4.44,14.11,14.11,0,0,0,.75,1.84,11.92,11.92,0,0,0,2,2.87l.12.13a11.48,11.48,0,0,0,1.72,1.5,10.84,10.84,0,0,0,3.15,1.53,15.32,15.32,0,0,0,4.52.6c.41,0,.81,0,1.18,0l.42,0a15.58,15.58,0,0,0,2.6-.44,12.16,12.16,0,0,0,3.31-1.43v-6.4a9.58,9.58,0,0,1-5.41,3l-.48.08a10.24,10.24,0,0,1-1.21.08,7.48,7.48,0,0,1-5.23-2,7.4,7.4,0,0,1-1.82-3.1,4.74,4.74,0,0,1-.15-.57,9.81,9.81,0,0,1-.25-2.25,7.86,7.86,0,0,1,2.11-5.69A7.38,7.38,0,0,1,120.1,9.71Z"/><path class="cls-1" d="M178.82,11.71A4.14,4.14,0,0,0,175.3,9.6a2.44,2.44,0,0,0-1.76.64,1.86,1.86,0,0,0-.53,1.29,1.57,1.57,0,0,0,.82,1.41c.35.24.7.35,1.94,1l2.93,1.47a11.72,11.72,0,0,1,3.46,2.29A6.08,6.08,0,0,1,184,22.27a8.22,8.22,0,0,1-2.17,5.64,8.82,8.82,0,0,1-6.92,2.75,8.49,8.49,0,0,1-5.34-1.58,9.6,9.6,0,0,1-3.17-4.52l4.69-2.23a6.6,6.6,0,0,0,1.35,2.35,3.55,3.55,0,0,0,2.53.94,3.49,3.49,0,0,0,2.34-.82,2.93,2.93,0,0,0,.82-1.94,2.67,2.67,0,0,0-.76-1.88,7.54,7.54,0,0,0-2.46-1.52l-2.12-1a12.51,12.51,0,0,1-3.4-2.11,5.41,5.41,0,0,1-1.76-4.17,7.7,7.7,0,0,1,2-5.28,8,8,0,0,1,6.05-2.35,7.74,7.74,0,0,1,4.58,1.29,8.54,8.54,0,0,1,2.81,3.05Z"/><text class="cls-2" transform="translate(74.38 48.84)">MAN<tspan class="cls-3" x="36.64" y="0">A</tspan><tspan x="46.73" y="0">GEMENT</tspan></text></g></g></svg>