<svg xmlns="http://www.w3.org/2000/svg" width="1049.713" height="376.888" viewBox="0 0 1049.713 376.888">
  <g id="Group_57" data-name="Group 57" transform="translate(272.195 -910.574)">
    <path id="Path_130" data-name="Path 130" d="M-47.744,1286.954V1120.337H-250.163v166.617H-272.2V939.491h22.032v160.651H-47.744V939.491h22.032v347.463Z" fill="#221917"/>
    <path id="Path_131" data-name="Path 131" d="M252.438,1246.988c-16.982,23.409-48.653,39.474-89.045,39.474-62.424,0-109.242-45.441-109.242-112,0-68.391,41.768-115.209,108.783-115.209,65.636,0,95.012,52.785,95.012,105.57v4.131H75.265c0,5.967.459,11.935.459,14.23,4.13,56,44.982,84.456,91.8,84.456,39.016,0,62.884-18.82,73.44-32.59ZM236.374,1150.6c-4.59-39.016-28.917-72.523-75.276-72.523-44.523,0-73.44,27.54-82.161,60.588a78.793,78.793,0,0,0-2.295,11.935Z" fill="#221917"/>
    <path id="Path_132" data-name="Path 132" d="M334.594,1286.954V910.574h20.2v376.38Z" fill="#e4e4e4"/>
    <path id="Path_133" data-name="Path 133" d="M450.715,1286.954V910.574h20.2v376.38Z" fill="#e4e4e4"/>
    <path id="Path_134" data-name="Path 134" d="M663.226,1287.462c-64.26,0-114.75-49.112-114.75-113.373,0-64.719,50.49-113.832,114.75-113.832s114.292,50.49,114.292,113.832S727.486,1287.462,663.226,1287.462Zm-.918-207.927c-55.539,0-93.177,40.392-93.177,95.931,0,53.7,44.523,92.719,93.177,92.719,55.54,0,94.1-38.1,94.1-94.1C756.4,1119.468,712.8,1079.535,662.308,1079.535Z" fill="#e4e4e4"/>
  </g>
</svg>
