<svg xmlns="http://www.w3.org/2000/svg" width="202.2" height="202.454" viewBox="0 0 202.2 202.454">
  <g id="Group_152" data-name="Group 152" transform="translate(-1986.05 -12991)">
    <g id="Group_151" data-name="Group 151" transform="translate(1986.05 12991)">
      <g id="Group_28" data-name="Group 28">
        <path id="Path_67" data-name="Path 67" d="M1010.517,209.325l-8.548-3.073.661-1.84c.593-1.649,1.516-2.8,3.254-2.171a2.176,2.176,0,0,1,1.267,1.973,2.5,2.5,0,0,1,2.884-1.284c1.525.548,2.072,1.968,1.314,4.08Zm-4.23-3.522c.418-1.163.158-2.073-.779-2.409s-1.5.238-1.833,1.164l-.346.96,2.71.974Zm4.158.7c.463-1.287.069-2.105-.812-2.422-.859-.308-1.713.226-2.119,1.355l-.5,1.4,2.935,1.056Z" transform="translate(-996.902 -136.896)" fill="#221917"/>
        <path id="Path_68" data-name="Path 68" d="M1009.283,189.462l.53-1.022,7.136,3.7a4.615,4.615,0,0,1-.52,3.69,3.14,3.14,0,0,1-4.707,1.491l-5.134-2.662.53-1.022,4.611,2.391c2,1.039,3.027.759,3.9-.924a3.444,3.444,0,0,0,.418-2.135Z" transform="translate(-996.902 -136.896)" fill="#221917"/>
        <path id="Path_69" data-name="Path 69" d="M1021.092,187.487l-7.554-5.036.639-.958,7.553,5.036Z" transform="translate(-996.902 -136.896)" fill="#221917"/>
        <path id="Path_70" data-name="Path 70" d="M1025.309,181.544l-7.038-5.722.727-.893,6.246,5.078,2.43-2.988.791.644Z" transform="translate(-996.902 -136.896)" fill="#221917"/>
        <path id="Path_71" data-name="Path 71" d="M1031.949,173.871l-6.283-6.561,1.682-1.611c1.941-1.859,4.631-2.26,6.69-.11,1.967,2.054,1.682,4.671-.476,6.738Zm.906-2.281c1.552-1.486,1.993-3.386.274-5.18a3.363,3.363,0,0,0-5.042.01l-.875.838,4.864,5.079Z" transform="translate(-996.902 -136.896)" fill="#221917"/>
        <path id="Path_72" data-name="Path 72" d="M1041.535,165.359,1036,158.151l.914-.7,5.533,7.208Z" transform="translate(-996.902 -136.896)" fill="#221917"/>
        <path id="Path_73" data-name="Path 73" d="M1044.987,154.885l3.364,5.6-.989.592-4.779-8.01,9.441,2.407-3.437-5.721.989-.591,4.822,8.081Z" transform="translate(-996.902 -136.896)" fill="#221917"/>
        <path id="Path_74" data-name="Path 74" d="M1062.9,149.174l-.394-.967,3.366-1.373c1.219,3.053-.2,5.161-2.234,5.991a4.722,4.722,0,1,1-3.555-8.747,4.944,4.944,0,0,1,3.637-.137l-.234,1.016a4.312,4.312,0,0,0-3.031.1,3.5,3.5,0,0,0-1.924,4.815,3.66,3.66,0,0,0,4.795,1.969,2.881,2.881,0,0,0,1.817-3.579Z" transform="translate(-996.902 -136.896)" fill="#221917"/>
        <path id="Path_75" data-name="Path 75" d="M1087.751,146.479l-1.394-5.248c-.028-.1-.066-.354-.081-.448-.012.074-.089.28-.139.434l-2.245,6.21-4.025-5.23a4.216,4.216,0,0,1-.267-.4,1.968,1.968,0,0,1,.083.46l.278,5.42-1.209.186-.357-9.389,4.95,6.35a1.462,1.462,0,0,1,.213.355,3.21,3.21,0,0,1,.094-.4l2.794-7.533,2.5,9.046Z" transform="translate(-996.902 -136.896)" fill="#221917"/>
        <path id="Path_76" data-name="Path 76" d="M1094.557,146.032l-.15-9.054,4.953-.082.017,1.019-3.8.063.045,2.686,3.058-.05.017,1.031-3.058.051.054,3.31,4.186-.081.017,1.019Z" transform="translate(-996.902 -136.896)" fill="#221917"/>
        <path id="Path_77" data-name="Path 77" d="M1113.837,147.274l.122-5.43c0-.109.035-.359.047-.454-.033.068-.165.245-.255.379l-3.886,5.341-2.411-6.145a4.4,4.4,0,0,1-.147-.454,2,2,0,0,1-.048.465l-1.241,5.285-1.214-.157,2.27-9.121,2.989,7.478a1.471,1.471,0,0,1,.1.4,3.292,3.292,0,0,1,.2-.361l4.781-6.459-.114,9.387Z" transform="translate(-996.902 -136.896)" fill="#221917"/>
        <path id="Path_78" data-name="Path 78" d="M1124.478,150.053a4.723,4.723,0,1,1,2.713-9.042,4.724,4.724,0,0,1,3.273,5.954A4.791,4.791,0,0,1,1124.478,150.053Zm2.413-8.043a3.6,3.6,0,0,0-4.561,2.427,3.715,3.715,0,0,0,2.363,4.6,3.683,3.683,0,0,0,2.2-7.031Z" transform="translate(-996.902 -136.896)" fill="#221917"/>
        <path id="Path_79" data-name="Path 79" d="M1138.86,155.507l-1.767-4.757-.317-.146-1.5,3.246-1.046-.483,3.812-8.247,1.646.76c1.416.655,3.049,1.925,2.118,3.941a2.777,2.777,0,0,1-3.534,1.408l2.059,4.958Zm-1.067-5.557c1.416.654,2.485.315,2.918-.622.478-1.035-.029-1.851-1.25-2.415l-.806-.373-1.45,3.138Z" transform="translate(-996.902 -136.896)" fill="#221917"/>
        <path id="Path_80" data-name="Path 80" d="M1149.625,161.774l.316-2.324-3.653-2.3-1.97,1.282-1.076-.678,8.737-5.608-1.278,10.308Zm.947-7.015a5.035,5.035,0,0,1,.1-.546,4.425,4.425,0,0,1-.438.335l-3.007,1.96,2.862,1.8Z" transform="translate(-996.902 -136.896)" fill="#221917"/>
        <path id="Path_81" data-name="Path 81" d="M1154.558,165.384l5.787-7,1.507,1.246c1.35,1.116,2.117,2.372.94,3.8a2.178,2.178,0,0,1-2.286.523,2.5,2.5,0,0,1,.23,3.149c-1.031,1.248-2.553,1.281-4.283-.148Zm2.674.888c1.055.872,1.957.777,2.554.056.581-.7.368-1.688-.557-2.453l-1.146-.948-1.988,2.4Zm2.073-3.673c.952.787,1.895.851,2.53.083s.284-1.493-.474-2.119l-.786-.65-1.835,2.219Z" transform="translate(-996.902 -136.896)" fill="#221917"/>
        <path id="Path_82" data-name="Path 82" d="M1163.068,172.909l6.552-6.275.8.832-5.815,5.57,2.665,2.782-.738.705Z" transform="translate(-996.902 -136.896)" fill="#221917"/>
        <path id="Path_83" data-name="Path 83" d="M1169.877,180.5l7.212-5.484,3,3.945-.812.618-2.3-3.028-2.14,1.627,1.853,2.435-.822.625-1.852-2.436-2.636,2.005,2.544,3.326-.812.617Z" transform="translate(-996.902 -136.896)" fill="#221917"/>
        <path id="Path_84" data-name="Path 84" d="M1182.43,201.29l8.4-3.41,1.865,4.594-.945.384-1.432-3.526-2.492,1.012,1.153,2.836-.957.388-1.152-2.836-3.07,1.247,1.587,3.877-.946.384Z" transform="translate(-996.902 -136.896)" fill="#221917"/>
        <path id="Path_85" data-name="Path 85" d="M1187.514,216.51l2.973-3.371-4.274-1.476-.367-1.369,5.387,2.011,3.456-4.123.365,1.357-2.76,3.152,3.971,1.359.367,1.368-5.075-1.907-3.676,4.368Z" transform="translate(-996.902 -136.896)" fill="#221917"/>
        <path id="Path_86" data-name="Path 86" d="M1188.783,222.816l9-1.259.262,1.866c.256,1.831-.145,3.559-2.178,3.844-1.723.241-3.077-.685-3.407-3.05l-.1-.737-3.411.477Zm4.682,1.236c.2,1.45,1.057,2.191,2.223,2.028,1.1-.155,1.536-1.063,1.374-2.217l-.143-1.022-3.554.5Z" transform="translate(-996.902 -136.896)" fill="#221917"/>
        <path id="Path_87" data-name="Path 87" d="M1189.934,233.519l9.054-.207.114,4.953-1.02.024-.087-3.8-2.686.062.07,3.058-1.031.024-.071-3.058-3.31.075.108,4.186-1.019.023Z" transform="translate(-996.902 -136.896)" fill="#221917"/>
        <path id="Path_88" data-name="Path 88" d="M1189.342,249.312l3.9-3.243.033-.346-3.56-.342.11-1.147,9.044.867-.173,1.8c-.148,1.553-.806,3.515-3.016,3.3a2.776,2.776,0,0,1-2.5-2.868l-4,3.584Zm4.89-2.847c-.149,1.553.525,2.45,1.553,2.548,1.135.109,1.737-.641,1.865-1.98l.085-.884-3.441-.329Z" transform="translate(-996.902 -136.896)" fill="#221917"/>
        <path id="Path_89" data-name="Path 89" d="M1188.349,255.449l8.906,1.767-.225,1.129-8.905-1.767Z" transform="translate(-996.902 -136.896)" fill="#221917"/>
        <path id="Path_90" data-name="Path 90" d="M1186.728,262.559l8.664,2.638-1.444,4.739-.975-.3L1194.08,266l-2.57-.782-.891,2.926-.987-.3.891-2.926-3.167-.964-1.208,4.008-.975-.3Z" transform="translate(-996.902 -136.896)" fill="#221917"/>
        <path id="Path_91" data-name="Path 91" d="M1188.787,276.456l-5.94-2.712.48-1.048,8.473,3.9-9.148,3.358,6.072,2.772-.481,1.047-8.549-3.935Z" transform="translate(-996.902 -136.896)" fill="#221917"/>
        <path id="Path_92" data-name="Path 92" d="M1173.815,292a4.489,4.489,0,0,1,.73-3.258,4.758,4.758,0,0,1,6.623-1.546,4.7,4.7,0,0,1,1.336,6.616,4.523,4.523,0,0,1-2.756,2l-.327-.97a3.647,3.647,0,0,0,1.03-6.651,3.649,3.649,0,0,0-5.048,1.125,3.8,3.8,0,0,0-.667,2.655Z" transform="translate(-996.902 -136.896)" fill="#221917"/>
        <path id="Path_93" data-name="Path 93" d="M1169.688,295.733l6.912,5.865-3.208,3.78-.779-.66,2.463-2.9-2.051-1.739-1.981,2.334-.787-.668,1.98-2.334-2.526-2.144-2.7,3.2-.779-.66Z" transform="translate(-996.902 -136.896)" fill="#221917"/>
        <path id="Path_94" data-name="Path 94" d="M1163.9,304.911a3.149,3.149,0,0,0-2.4.853,1.516,1.516,0,0,0-.245,2.249c1.623,1.735,4.251-1.513,6.144.51a2.435,2.435,0,0,1-.348,3.561,3.537,3.537,0,0,1-2.39.939l-.135-1.023a2.582,2.582,0,0,0,1.812-.661,1.315,1.315,0,0,0,.242-1.935c-1.335-1.428-4.022,1.809-6.219-.538-.877-.937-.914-2.61.5-3.929a4.1,4.1,0,0,1,2.928-1.065Z" transform="translate(-996.902 -136.896)" fill="#221917"/>
        <path id="Path_95" data-name="Path 95" d="M1148.036,322.794l-1-7.337,7.708,6.442-1.085.641-5.037-4.257a1.588,1.588,0,0,1-.288-.345,1.511,1.511,0,0,1,.153.424l1.029,6.9-5.625-4.188a1.43,1.43,0,0,1-.3-.34,1.534,1.534,0,0,1,.164.419l1.35,6.435-1.065.629-1.991-9.833Z" transform="translate(-996.902 -136.896)" fill="#221917"/>
        <path id="Path_96" data-name="Path 96" d="M1134.855,322.323l3.592,8.34-1.057.455-3.592-8.339Z" transform="translate(-996.902 -136.896)" fill="#221917"/>
        <path id="Path_97" data-name="Path 97" d="M1126.448,325.519l2.437,7.669,2.526-.8.309.971-6.15,1.954-.308-.971,2.526-.8-2.437-7.668Z" transform="translate(-996.902 -136.896)" fill="#221917"/>
        <path id="Path_98" data-name="Path 98" d="M1112.083,328.958l.725,4.039,4.618-.83-.726-4.039,1.134-.2,1.6,8.941-1.133.2-.7-3.873-4.618.829.7,3.874-1.133.2-1.606-8.941Z" transform="translate(-996.902 -136.896)" fill="#221917"/>
        <path id="Path_99" data-name="Path 99" d="M1091.824,329.844l.9,2.167,4.317.143,1.055-2.1,1.271.042-4.713,9.257-4.1-9.549Zm2.725,6.538a4.864,4.864,0,0,1,.187.522,4.376,4.376,0,0,1,.209-.509l1.607-3.212-3.382-.112Z" transform="translate(-996.902 -136.896)" fill="#221917"/>
        <path id="Path_100" data-name="Path 100" d="M1079.063,328.112l-2.183,8.814-2.259-.56c-2.608-.646-4.384-2.7-3.669-5.592.684-2.759,3.046-3.916,5.945-3.2Zm-2.411.453c-2.084-.516-3.923.128-4.521,2.538a3.361,3.361,0,0,0,2.7,4.253l1.176.291,1.69-6.822Z" transform="translate(-996.902 -136.896)" fill="#221917"/>
        <path id="Path_101" data-name="Path 101" d="M1066.789,324.616l-3.283,8.445-4.619-1.8.369-.951,3.546,1.378.973-2.5-2.851-1.109.374-.962,2.851,1.109,1.2-3.087-3.908-1.507.37-.95Z" transform="translate(-996.902 -136.896)" fill="#221917"/>
        <path id="Path_102" data-name="Path 102" d="M1056.261,322.153a3.159,3.159,0,0,0-1.591-2,1.517,1.517,0,0,0-2.207.5c-1.112,2.1,2.816,3.528,1.519,5.978a2.437,2.437,0,0,1-3.482.831,3.535,3.535,0,0,1-1.666-1.955l.923-.462a2.585,2.585,0,0,0,1.216,1.5,1.315,1.315,0,0,0,1.909-.4c.916-1.729-3.022-3.216-1.517-6.058.6-1.135,2.171-1.715,3.878-.811a4.111,4.111,0,0,1,1.962,2.424Z" transform="translate(-996.902 -136.896)" fill="#221917"/>
        <path id="Path_103" data-name="Path 103" d="M1047.762,315.087l-5.014,7.578-.961-.636,5.014-7.578Z" transform="translate(-996.902 -136.896)" fill="#221917"/>
        <path id="Path_104" data-name="Path 104" d="M1035.781,310.437l-.672.8-2.783-2.34c2.134-2.5,4.661-2.226,6.343-.813a4.724,4.724,0,1,1-6.086,7.222,4.932,4.932,0,0,1-1.814-3.156l1.006-.266a4.326,4.326,0,0,0,1.5,2.638,3.5,3.5,0,0,0,5.158-.541,3.661,3.661,0,0,0-.491-5.161,2.882,2.882,0,0,0-4.014.058Z" transform="translate(-996.902 -136.896)" fill="#221917"/>
        <path id="Path_105" data-name="Path 105" d="M1025.854,305.164l4.9-4.318.761.866-7.015,6.144.664-9.719-5.006,4.412-.76-.866,7.078-6.2Z" transform="translate(-996.902 -136.896)" fill="#221917"/>
        <path id="Path_106" data-name="Path 106" d="M1022.624,290.837l-7.546,5.022-2.747-4.127.85-.565,2.108,3.167,2.239-1.49-1.7-2.548.859-.572,1.7,2.548,2.758-1.836-2.332-3.481.85-.566Z" transform="translate(-996.902 -136.896)" fill="#221917"/>
        <path id="Path_107" data-name="Path 107" d="M1014.688,277.159l-1.571,4.823.156.311,3.193-1.61.518,1.028-8.108,4.089-.815-1.617c-.7-1.392-1.193-3.4.789-4.4a2.774,2.774,0,0,1,3.641,1.093l1.469-5.161Zm-2.617,5.014c-.7-1.392-1.749-1.791-2.671-1.326-1.017.513-1.127,1.468-.521,2.668l.4.793,3.085-1.556Z" transform="translate(-996.902 -136.896)" fill="#221917"/>
        <path id="Path_108" data-name="Path 108" d="M1010,265.057l-8.721,2.443-1.336-4.771.982-.275,1.025,3.662,2.587-.725-.824-2.946.993-.278.825,2.946,3.188-.893-1.141-4.028.983-.275Z" transform="translate(-996.902 -136.896)" fill="#221917"/>
        <path id="Path_109" data-name="Path 109" d="M1007.178,252.765l-3.854.6-4.642,3.9-.2-1.281,3.668-2.97a.685.685,0,0,1,.286-.117.646.646,0,0,1-.309-.037l-4.4-1.749-.194-1.256,5.611,2.374,3.854-.6Z" transform="translate(-996.902 -136.896)" fill="#221917"/>
        <path id="Path_110" data-name="Path 110" d="M1006.134,243.7l-9.056.322-.176-4.953,1.019-.036.136,3.8,2.686-.095-.108-3.058,1.031-.037.108,3.058,3.311-.118-.161-4.185,1.019-.036Z" transform="translate(-996.902 -136.896)" fill="#221917"/>
      </g>
    </g>
  </g>
</svg>
