<svg xmlns="http://www.w3.org/2000/svg" width="122" height="44.176" viewBox="0 0 122 44.176">
  <g id="Logo" transform="translate(0 0)">
    <path id="Path_1" data-name="Path 1" d="M650,317.257v-.216a3.488,3.488,0,0,0,2.38-.649c1.1-.893,1.158-2.437,1.2-3.769.146-4.227,0-8.46,0-12.689,0-3.331-.412-4.378-3.585-4.5v-.19h7.963c4.631,0,8.438,1.523,8.216,6.059a5.878,5.878,0,0,1-4.41,5.044c.811,2,3.176,7.314,7.5,10.678a16.15,16.15,0,0,0,9.722,3.527,14.961,14.961,0,0,1-9.089-.839,16,16,0,0,1-5.823-4.642,38.865,38.865,0,0,1-3.758-5.871c-.472-.84-.845-1.546-1.094-2.028a21.906,21.906,0,0,1-2.918-.159v5.361c0,3.49.508,4.632,3.489,4.758v.19c-2.062-.063-3.141-.1-5.234-.1-.308,0-.543,0-.736,0l-1.113.011C652.251,317.244,651.456,317.251,650,317.257Zm11.451-11.645a4.951,4.951,0,0,0,1.808-4.314c0-3.2-1.586-5.742-6.884-5.805-.031,1.364-.063,2.221-.063,3.616v7.677C658.56,306.85,660.273,306.5,661.446,305.613Z" transform="translate(-567.557 -276.721)" fill="#221917"/>
    <g id="Group_1" data-name="Group 1" transform="translate(100.611 18.466)">
      <path id="Path_2" data-name="Path 2" d="M751.76,310.484c-2.005-4.623-5.57-12.894-6.517-15.484l-.167.056c-1.17,2.869-5.542,12.115-7.464,16.125-1.17,2.423-2.005,3.119-3.62,3.286v.223h3.225l6.244-15.262q.735,1.731,1.456,3.507,2.433,6,4.4,11.755h6.063v-.223C753.6,314.244,753.1,313.492,751.76,310.484Z" transform="translate(-733.992 -295)" fill="#221917"/>
    </g>
    <g id="Group_2" data-name="Group 2">
      <path id="Path_3" data-name="Path 3" d="M303.432,239.662c-3.886-8.958-10.794-24.987-12.629-30.007l-.324.108c-2.267,5.559-10.74,23.476-14.464,31.248-2.267,4.7-3.886,6.045-7.016,6.368v.432h6.25l12.1-29.575q1.425,3.354,2.822,6.8,4.715,11.622,8.528,22.779h11.748v-.432C306.994,246.948,306.023,245.491,303.432,239.662Z" transform="translate(-269 -209.656)" fill="#221917"/>
    </g>
    <path id="Path_4" data-name="Path 4" d="M482.809,314.665q-3.073-4.223-6.2-8.47-3.183-4.326-6.359-8.593c0,4.758,0,8.667.113,13.227.085,2.946.906,3.6,3.172,3.711v.142c-.624-.011-1.151-.015-1.549-.017s-.491,0-1.515,0c-1.1,0-1.109,0-1.515,0-.45,0-1.1.005-1.908.017v-.142c1.954-.2,2.662-.878,2.747-3.654.113-4.192.113-7.025.113-11.755,0-2.747-1.161-3.8-3.172-3.994v-.17l2.652.007c.133,0,.445,0,.866,0,.331,0,.6,0,.787-.007,4.5,6.316,8.582,11.981,11.67,16.145.028-4.617.057-9.97.028-12.689-.028-2.549-.85-3.229-3.257-3.314v-.142c.551,0,1.319.006,2.24.007h1.082c.766,0,1.834,0,3.164-.007v.142c-2.1.085-2.606.821-2.719,3.059,0,0,.048,1.729-.17,11.471-.009.4-.058,2.271-.059,4.808v.216Z" transform="translate(-423.955 -276.509)" fill="#221917"/>
    <path id="Path_5" data-name="Path 5" d="M573.272,314a14.493,14.493,0,0,1-4.872.68h-7.194v-.142c2.521-.085,2.889-.736,2.889-3.965v-11.5c0-3.314-.453-3.824-2.889-3.965v-.142h6.26a18.786,18.786,0,0,1,4.843.566c4.333,1.218,6.883,4.22,6.883,9.177S576.756,312.727,573.272,314Zm-.255-17.533c-1.614-.878-3.4-1.218-6.713-1.218-.028.821-.057,2.521-.057,4.079V310.6c0,3.087.538,3.739,3.455,3.739,4.7,0,7.109-3.994,7.109-9.432C576.813,301.029,575.595,297.829,573.017,296.469Z" transform="translate(-497.981 -276.509)" fill="#221917"/>
  </g>
</svg>
