<svg xmlns="http://www.w3.org/2000/svg" width="64.431" height="57.017" viewBox="0 0 64.431 57.017">
  <path id="Path_119" data-name="Path 119" d="M622,349.166v-.481a7.75,7.75,0,0,0,5.289-1.442c2.455-1.985,2.572-5.416,2.674-8.374.325-9.393,0-18.8,0-28.2,0-7.4-.916-9.728-7.966-10.01v-.423h17.694c10.292,0,18.751,3.383,18.258,13.464-.212,4.371-3.525,9.235-9.8,11.209,1.8,4.445,7.057,16.253,16.675,23.729a35.887,35.887,0,0,0,21.6,7.838,33.245,33.245,0,0,1-20.2-1.865,35.559,35.559,0,0,1-12.94-10.315c-3.153-3.8-5.608-8.169-8.35-13.047-1.05-1.867-1.877-3.435-2.43-4.508a48.7,48.7,0,0,1-6.485-.352v11.913c0,7.754,1.128,10.292,7.754,10.574v.423c-4.582-.141-6.979-.211-11.631-.211-.685,0-1.206,0-1.636.008l-2.473.024C627.009,349.136,625.243,349.153,622,349.166Zm25.445-25.876c2.679-1.974,4.018-5.076,4.018-9.587,0-7.12-3.524-12.759-15.3-12.9-.07,3.031-.141,4.935-.141,8.036V325.9C641.028,326.039,644.834,325.264,647.442,323.29Z" transform="translate(-621.994 -300.239)"/>
</svg>
