<svg xmlns="http://www.w3.org/2000/svg" width="39.967" height="43.807" viewBox="0 0 39.967 43.807">
  <path id="Path_123" data-name="Path 123" d="M560.018,342.264c-3.084,1.2-7.3,1.51-10.825,1.51H533.206v-.314c5.6-.189,6.42-1.636,6.42-8.812V309.094c0-7.364-1.007-8.5-6.42-8.811v-.315h13.91a41.748,41.748,0,0,1,10.763,1.259c9.63,2.706,15.294,9.378,15.294,20.393S567.76,339.432,560.018,342.264Zm-.566-38.96c-3.587-1.951-7.553-2.706-14.917-2.706-.063,1.825-.126,5.6-.126,9.064v25.05c0,6.86,1.2,8.308,7.678,8.308,10.448,0,15.8-8.874,15.8-20.959C567.886,313.437,565.18,306.325,559.452,303.3Z" transform="translate(-533.206 -299.968)"/>
</svg>
