<svg xmlns="http://www.w3.org/2000/svg" width="42.736" height="43.807" viewBox="0 0 42.736 43.807">
  <path id="Path_122" data-name="Path 122" d="M474.445,343.737q-6.828-9.385-13.77-18.821-7.072-9.612-14.13-19.094c0,10.574,0,19.259.252,29.393.189,6.546,2.014,7.993,7.049,8.245v.314c-1.386-.024-2.557-.034-3.442-.037-.855,0-1.09,0-3.366,0-2.441,0-2.465,0-3.366,0-1,0-2.453.012-4.24.037v-.314c4.343-.441,5.916-1.952,6.1-8.119.252-9.315.252-15.609.252-26.12,0-6.1-2.581-8.434-7.049-8.874v-.378q4.034.008,5.894.015c.3,0,.99,0,1.923,0,.736,0,1.341-.01,1.749-.015,10.008,14.036,19.071,26.624,25.931,35.876.063-10.259.126-22.155.063-28.2-.063-5.664-1.888-7.175-7.238-7.364v-.315c1.224.006,2.93.013,4.977.015h2.4c1.7,0,4.075,0,7.032-.015v.315c-4.658.189-5.79,1.825-6.042,6.8,0,0,.108,3.842-.378,25.491-.02.895-.128,5.046-.131,10.685v.481Z" transform="translate(-438.741 -299.968)"/>
</svg>
