<svg xmlns="http://www.w3.org/2000/svg" width="287.791" height="104.767" viewBox="0 0 287.791 104.767">
  <g id="Group_53" data-name="Group 53" transform="translate(0.338 0.123)">
    <path id="Path_125" data-name="Path 125" d="M0,52.079v-.512a8.249,8.249,0,0,0,5.63-1.535c2.613-2.113,2.738-5.765,2.846-8.914.345-10,0-20.009,0-30.013C8.479,3.226,7.5.75,0,.45V0H18.834C29.788,0,38.793,3.6,38.268,14.331c-.225,4.652-3.752,9.83-10.43,11.931,1.918,4.731,7.511,17.3,17.749,25.257A38.609,38.609,0,0,0,53.739,56.5a38.813,38.813,0,0,0,14.842,3.36,35.386,35.386,0,0,1-21.5-1.985A37.849,37.849,0,0,1,33.31,46.9c-3.356-4.045-5.969-8.7-8.888-13.887-1.117-1.987-2-3.656-2.587-4.8a51.831,51.831,0,0,1-6.9-.375v12.68c0,8.254,1.2,10.955,8.253,11.255v.45c-4.877-.15-7.428-.225-12.38-.225-.729,0-1.284,0-1.741.008l-2.633.026C5.338,52.047,3.458,52.064,0,52.079ZM27.087,24.536c2.852-2.1,4.277-5.4,4.277-10.2C31.364,6.753,27.613.75,15.082.6c-.075,3.226-.15,5.252-.15,8.554V27.313C20.26,27.462,24.311,26.637,27.087,24.536Z" transform="translate(194.984 43.799)"/>
    <g id="Group_51" data-name="Group 51" transform="translate(236.437 43.677)">
      <path id="Path_126" data-name="Path 126" d="M42.027,36.625C37.283,25.69,28.852,6.126,26.612,0l-.4.132C23.45,6.917,13.109,28.786,8.563,38.272,5.8,44,3.82,45.649,0,46.045v.527H7.628L22.4,10.474q1.74,4.094,3.445,8.3Q31.6,32.955,36.25,46.572H50.59v-.527C46.374,45.518,45.188,43.739,42.027,36.625Z"/>
    </g>
    <g id="Group_52" data-name="Group 52">
      <path id="Path_127" data-name="Path 127" d="M81.441,70.973C72.25,49.784,55.911,11.872,51.571,0L50.8.255C45.443,13.4,25.4,55.783,16.594,74.165,11.233,85.27,7.4,88.462,0,89.228v1.021H14.782Q29.091,55.272,43.4,20.3q3.371,7.932,6.675,16.075Q61.228,63.861,70.247,90.249H98.035V89.228C89.866,88.206,87.568,84.759,81.441,70.973Z"/>
    </g>
    <path id="Path_128" data-name="Path 128" d="M38,46.588Q30.737,36.6,23.347,26.555,15.82,16.324,8.307,6.231c0,11.255,0,20.5.268,31.286.2,6.967,2.144,8.508,7.5,8.776v.335c-1.475-.026-2.722-.036-3.663-.04-.911,0-1.16,0-3.582,0-2.6,0-2.623,0-3.582,0-1.064,0-2.611.012-4.513.04v-.335c4.622-.469,6.3-2.077,6.5-8.642.268-9.915.268-16.615.268-27.8C7.5,3.35,4.756.871,0,.4V0Q4.293.008,6.274.016c.314,0,1.053,0,2.047,0C9.1.013,9.749.006,10.183,0c10.652,14.94,20.3,28.339,27.6,38.187.067-10.92.134-23.582.067-30.014-.067-6.029-2.01-7.637-7.7-7.838V0c1.3.007,3.119.014,5.3.016.547,0,1.3,0,2.559,0,1.812,0,4.338-.005,7.485-.016V.335c-4.958.2-6.163,1.943-6.431,7.236,0,0,.115,4.09-.4,27.132-.021.952-.137,5.371-.14,11.373v.512Z" transform="translate(101.199 43.661)"/>
    <path id="Path_129" data-name="Path 129" d="M28.539,45.02c-3.283,1.273-7.771,1.607-11.523,1.607H0v-.335c5.962-.2,6.833-1.742,6.833-9.379V9.714C6.833,1.876,5.761.67,0,.335V0H14.806A44.437,44.437,0,0,1,26.262,1.34c10.25,2.881,16.28,9.982,16.28,21.706S36.78,42.006,28.539,45.02Zm-.6-41.47C24.118,1.474,19.9.67,12.059.67c-.067,1.943-.134,5.963-.134,9.647V36.981c0,7.3,1.273,8.843,8.173,8.843,11.121,0,16.815-9.446,16.815-22.309C36.913,14.336,34.033,6.766,27.936,3.551Z" transform="translate(149.544 43.661)"/>
  </g>
</svg>
