<svg xmlns="http://www.w3.org/2000/svg" width="129.492" height="124" viewBox="0 0 129.492 124">
  <g id="Group_141" data-name="Group 141" transform="translate(-1144 -211)">
    <rect id="Rectangle_66" data-name="Rectangle 66" width="2.553" height="124" rx="1.276" transform="translate(1144 211)" fill="#cfd9de" opacity="0.2"/>
    <rect id="Rectangle_84" data-name="Rectangle 84" width="2.553" height="124" rx="1.276" transform="translate(1270.94 211)" fill="#cfd9de" opacity="0.2"/>
    <rect id="Rectangle_70" data-name="Rectangle 70" width="34" height="2" rx="1" transform="translate(1166 311)" fill="#e9c255"/>
    <rect id="Rectangle_85" data-name="Rectangle 85" width="33" height="1" rx="0.5" transform="translate(1191 323)" fill="#e9c255"/>
    <rect id="Rectangle_78" data-name="Rectangle 78" width="34" height="2" rx="1" transform="translate(1228 300)" fill="#e9c255"/>
    <rect id="Rectangle_71" data-name="Rectangle 71" width="35" height="2" rx="1" transform="translate(1182 289)" fill="#e9c255"/>
    <path id="Subtraction_2" data-name="Subtraction 2" d="M22,1H.5a.5.5,0,1,1,0-1H22V1Z" transform="translate(1249 278)" fill="#e9c255"/>
    <path id="Subtraction_1" data-name="Subtraction 1" d="M30,1H.5a.5.5,0,1,1,0-1H30V1Z" transform="translate(1241 323)" fill="#e9c255"/>
    <path id="Subtraction_3" data-name="Subtraction 3" d="M29.5,1H0V0H29.5a.5.5,0,1,1,0,1Z" transform="translate(1147 245)" fill="#e9c255"/>
    <rect id="Rectangle_89" data-name="Rectangle 89" width="33" height="1" rx="0.5" transform="translate(1219 256)" fill="#e9c255"/>
    <rect id="Rectangle_90" data-name="Rectangle 90" width="34" height="2" rx="1" transform="translate(1178 267)" fill="#e9c255"/>
    <rect id="Rectangle_92" data-name="Rectangle 92" width="33" height="1" rx="0.5" transform="translate(1202 234)" fill="#e9c255"/>
    <rect id="Rectangle_93" data-name="Rectangle 93" width="34" height="1" rx="0.5" transform="translate(1233 223)" fill="#e9c255"/>
    <rect id="Rectangle_95" data-name="Rectangle 95" width="33" height="1" rx="0.5" transform="translate(1151 223)" fill="#e9c255"/>
  </g>
</svg>
