<svg id="Layer_1" data-name="Layer 1" xmlns="http://www.w3.org/2000/svg" viewBox="0 0 717 722"><defs><style>.cls-1{fill:#e9c255;}</style></defs><path class="cls-1" d="M612,359A255.29,255.29,0,0,1,411.55,608.1,254.77,254.77,0,0,1,107.08,409.7a255.79,255.79,0,0,1,0-101.4,255.09,255.09,0,0,1,486.26-45.12A254.76,254.76,0,0,1,612,359Zm0,0a252.62,252.62,0,0,0-4.89-48.76,244.92,244.92,0,0,0-415.77-121.9,248.82,248.82,0,0,0-29.53,36.91A244,244,0,0,0,122,359a244.44,244.44,0,0,0,17.9,92,244.93,244.93,0,0,0,467.21-43.23A252.62,252.62,0,0,0,612,359Z"/></svg>