<svg id="Layer_1" data-name="Layer 1" xmlns="http://www.w3.org/2000/svg" viewBox="0 0 717 722"><defs><style>.cls-1{fill:#e9c255;}</style></defs><path class="cls-1" d="M415.45,510A154.92,154.92,0,0,0,419,223.52a153.51,153.51,0,0,0-29.92-9.32A160.21,160.21,0,0,0,357.91,211a162.56,162.56,0,0,0-31.19,3.16,155,155,0,0,0-81,44.69,154.88,154.88,0,0,0-29.2,170.7,155.63,155.63,0,0,0,65.88,71.8l.94-.88a145.13,145.13,0,0,1,20.81-259.17A144.79,144.79,0,0,1,357.91,231a144.28,144.28,0,0,1,53.71,10.32A146.92,146.92,0,0,1,436.1,254a148.56,148.56,0,0,1,21.76,17.09A146.2,146.2,0,0,1,490,316.33a144.72,144.72,0,0,1-74.83,193l-2.57,1.06.44.54C413.85,510.61,414.65,510.29,415.45,510Z"/></svg>