<svg id="Layer_1" data-name="Layer 1" xmlns="http://www.w3.org/2000/svg" viewBox="0 0 717 722"><defs><style>.cls-1{fill:#e9c255;}</style></defs><path class="cls-1" d="M659,359a303.83,303.83,0,0,1-49.91,167.1A306.05,306.05,0,0,1,475,639,304.8,304.8,0,0,1,55,419.46a305.87,305.87,0,0,1,0-120.92A304.48,304.48,0,0,1,359,54a308.29,308.29,0,0,1,59.31,6.85A305,305,0,0,1,659,359Zm0,0a303.32,303.32,0,0,0-5.85-58.52A294.49,294.49,0,0,0,359,64,295.6,295.6,0,0,0,90.73,247.88a295.21,295.21,0,0,0,210.9,399.5,295.63,295.63,0,0,0,171.05-13.93A294.85,294.85,0,0,0,653.15,417.52,303.32,303.32,0,0,0,659,359Z"/></svg>