<svg id="Layer_1" data-name="Layer 1" xmlns="http://www.w3.org/2000/svg" viewBox="0 0 2687.07 3983.99"><defs><style>.cls-1{fill:#e9c255;}</style></defs><path class="cls-1" d="M-243.64-403.88a299.28,299.28,0,0,0-64.27-95.35,299.14,299.14,0,0,0-95.35-64.28A298.17,298.17,0,0,0-520-587.09a300.21,300.21,0,0,0-70.26,8.26v35.46A264.81,264.81,0,0,1-524-552.78c148.32-2.16,270.32,118.6,269.61,266.94-.46,97.79-54,183.27-133.28,229v39A299,299,0,0,0-307.91-75a299.06,299.06,0,0,0,64.27-95.35,298.21,298.21,0,0,0,23.58-116.76A298.22,298.22,0,0,0-243.64-403.88Zm-536,174.69c-27.54-129.68,40.27-248.11,146.42-298.25V-565l-3.65,1.52a299.14,299.14,0,0,0-95.35,64.28,299.11,299.11,0,0,0-64.27,95.35,298,298,0,0,0-23.58,116.77A298,298,0,0,0-796.48-170.3a298.89,298.89,0,0,0,64.27,95.35,299.14,299.14,0,0,0,95.35,64.28A298,298,0,0,0-520.1,12.91,298.68,298.68,0,0,0-430.56-.68V-36.91C-474.71-21-524.24-16.58-575.57-27-667.78-45.78-760.08-137.14-779.63-229.19Z" transform="translate(820.06 587.09)"/><path class="cls-1" d="M-444.81-472.45a199.44,199.44,0,0,0-75.25-14.65,199.47,199.47,0,0,0-75.25,14.64,198.89,198.89,0,0,0-66.15,43.93,200,200,0,0,0-29.23,37L-674-374.8a175.76,175.76,0,0,1,26.83-35.7c68.89-70.94,183.33-71.52,252.93-1.26A177.24,177.24,0,0,1-349.09-241l18.37,18.36a199.46,199.46,0,0,0,10.65-64.5,199.44,199.44,0,0,0-14.65-75.25,198.93,198.93,0,0,0-43.93-66.16A198.73,198.73,0,0,0-444.81-472.45Zm-170.32,335c-74.11-48.15-98-135.95-71.58-209.62l-17.69-17.7c-.34.81-.67,1.62-1,2.44A199.43,199.43,0,0,0-720-287.06a199.52,199.52,0,0,0,14.65,75.25,198.73,198.73,0,0,0,43.93,66.16,199,199,0,0,0,66.16,43.93,199.43,199.43,0,0,0,75.25,14.64,199.23,199.23,0,0,0,75.24-14.64,198.63,198.63,0,0,0,66.16-43.93,198.77,198.77,0,0,0,35.8-48.62l-17.08-17.07a178.81,178.81,0,0,1-63.69,73C-475.94-103.7-562.52-103.26-615.13-137.43Z" transform="translate(820.06 587.09)"/><path class="cls-1" d="M-559-379.23a99.84,99.84,0,0,0-31.79,21.43A99.66,99.66,0,0,0-612.2-326a99.26,99.26,0,0,0-7.86,38.92,100.09,100.09,0,0,0,2.75,23.42h11.82a88.14,88.14,0,0,1-3.13-22.11,88.75,88.75,0,0,1,89-89.87,88.6,88.6,0,0,1,76.33,44.43h13a99.64,99.64,0,0,0-19-26.57,99.84,99.84,0,0,0-31.79-21.43,99.44,99.44,0,0,0-38.92-7.86A99.44,99.44,0,0,0-559-379.23Zm58.23,178.66a88.74,88.74,0,0,1-99.42-48.8h-12.51c.17.4.33.81.51,1.22a99.61,99.61,0,0,0,21.42,31.78A99.61,99.61,0,0,0-559-194.95,99.35,99.35,0,0,0-520-187.09a99.3,99.3,0,0,0,38.92-7.86,99.5,99.5,0,0,0,31.78-21.42,99.8,99.8,0,0,0,21.43-31.78,99.48,99.48,0,0,0,7.86-38.92,99.53,99.53,0,0,0-4.53-29.85h-12.08a89.4,89.4,0,0,1,3.3,48.34C-439.63-237.85-470.08-207.08-500.76-200.57Z" transform="translate(820.06 587.09)"/><path class="cls-1" d="M1074,519a353.58,353.58,0,0,1-58.34,194.88A355.79,355.79,0,0,1,859.09,845.14a353.92,353.92,0,0,1-66,21A354.83,354.83,0,0,1,391.71,656.64,354.47,354.47,0,0,1,371,589.21a355.85,355.85,0,0,1,0-140.42A354.49,354.49,0,0,1,724,164a358.38,358.38,0,0,1,69.07,7.81A355,355,0,0,1,1074,519Zm0,0a354,354,0,0,0-6.8-68.27A344.78,344.78,0,0,0,534,234.55a345.82,345.82,0,0,0-124.43,154.2,345.44,345.44,0,0,0-19.11,196.62,340.94,340.94,0,0,0,19.08,63.89,344.95,344.95,0,0,0,657.7-62A354,354,0,0,0,1074,519Z" transform="translate(820.06 587.09)"/><path class="cls-1" d="M931.35,1351.57a346.25,346.25,0,0,1,127.59,152.08A344.83,344.83,0,0,1,884.07,1954.4l.51.64a354.91,354.91,0,0,0-72.33-673.14,355.85,355.85,0,0,0-140.42,0,354.5,354.5,0,0,0-284.76,353,358.17,358.17,0,0,0,7.79,69.06,355.25,355.25,0,0,0,98.73,179.39,359.1,359.1,0,0,0,53.57,43.21A350.28,350.28,0,0,0,590.75,1951l.58-.69a345.18,345.18,0,0,1,20.45-629.93A344.64,344.64,0,0,1,742,1294.91a343.76,343.76,0,0,1,189.31,56.66Z" transform="translate(820.06 587.09)"/><path class="cls-1" d="M1024,519a303.83,303.83,0,0,1-49.91,167.1A306.05,306.05,0,0,1,840,799,304.8,304.8,0,0,1,420,579.46a305.87,305.87,0,0,1,0-120.92A304.48,304.48,0,0,1,724,214a308.29,308.29,0,0,1,59.31,6.85A305,305,0,0,1,1024,519Zm0,0a303.32,303.32,0,0,0-5.85-58.52A294.49,294.49,0,0,0,724,224,295.6,295.6,0,0,0,455.73,407.88a295.21,295.21,0,0,0,210.9,399.5,295.63,295.63,0,0,0,171-13.93,294.85,294.85,0,0,0,180.47-215.93A303.32,303.32,0,0,0,1024,519Z" transform="translate(820.06 587.09)"/><path class="cls-1" d="M1723.47,1402.23a296,296,0,0,1,109.17,129.65,294.66,294.66,0,0,1-113.33,366.72c.17.44.33.89.49,1.34a305.92,305.92,0,0,0,122.12-140,304.28,304.28,0,0,0,18.2-56.66,305.56,305.56,0,0,0-14.48-176.82A304.8,304.8,0,0,0,1622.4,1340a305.87,305.87,0,0,0-120.92,0,305,305,0,0,0-128.17,538.53c.31-.62.63-1.23,1-1.84a295.22,295.22,0,0,1,76.55-501,295.19,295.19,0,0,1,222.25,0A297,297,0,0,1,1723.47,1402.23Z" transform="translate(820.06 587.09)"/><path class="cls-1" d="M974,519A255.29,255.29,0,0,1,773.55,768.1,254.77,254.77,0,0,1,469.08,569.7a255.79,255.79,0,0,1,0-101.4A255,255,0,0,1,974,519Zm0,0a252.62,252.62,0,0,0-4.89-48.76,244.92,244.92,0,0,0-415.77-121.9,248.82,248.82,0,0,0-29.53,36.91A244,244,0,0,0,484,519a244.44,244.44,0,0,0,17.9,92,244.93,244.93,0,0,0,467.21-43.23A252.62,252.62,0,0,0,974,519Z" transform="translate(820.06 587.09)"/><path class="cls-1" d="M831,2668l-.35-.54c2.28-.89,4.55-1.8,6.8-2.75a244.95,244.95,0,0,0,75.12-401.33,248.82,248.82,0,0,0-36.91-29.53A244,244,0,0,0,742,2194a244.44,244.44,0,0,0-92,17.9,244.94,244.94,0,0,0-55.25,423l-1.34,1.21a254.86,254.86,0,0,1,97.88-457.07,255.79,255.79,0,0,1,101.4,0,255.09,255.09,0,0,1,45.12,486.26C835.54,2666.23,833.29,2667.11,831,2668Z" transform="translate(820.06 587.09)"/><path class="cls-1" d="M924,519a204.42,204.42,0,0,1-14.88,76.68,204.95,204.95,0,0,1-391-35.74,205.76,205.76,0,0,1,0-81.89A204.8,204.8,0,0,1,801.7,331.42a205.71,205.71,0,0,1,107.43,110.9A203.56,203.56,0,0,1,920.26,480,201.44,201.44,0,0,1,924,519Zm0,0a201.77,201.77,0,0,0-3.93-39A194.91,194.91,0,0,0,588.7,383.7a195.72,195.72,0,0,0-40.58,62.46A195.35,195.35,0,0,0,537.54,556.1a192.27,192.27,0,0,0,10.56,35.75,194.94,194.94,0,0,0,372-33.85A201.77,201.77,0,0,0,924,519Z" transform="translate(820.06 587.09)"/><path class="cls-1" d="M1742.08,2335h-1c.17.33.33.67.49,1h1C1742.4,2335.67,1742.24,2335.33,1742.08,2335ZM1738,2515.29l1-1.94v-2.22l-1,1.92Z" transform="translate(820.06 587.09)"/><path class="cls-1" d="M874,519a154.22,154.22,0,0,1-11.08,57.54,154.95,154.95,0,0,1-295.76-26.35A162.64,162.64,0,0,1,564,519a160.21,160.21,0,0,1,3.16-31.19,153.51,153.51,0,0,1,9.32-29.92,155.11,155.11,0,0,1,286.45,3.57A154.48,154.48,0,0,1,874,519Zm0,0a151.17,151.17,0,0,0-3-29.25,144.93,144.93,0,0,0-247-70.7A148.56,148.56,0,0,0,607,440.81a146.92,146.92,0,0,0-12.64,24.48A144.28,144.28,0,0,0,584,519a144.79,144.79,0,0,0,10.3,53.72A144.95,144.95,0,0,0,871,548.25,151.17,151.17,0,0,0,874,519Z" transform="translate(820.06 587.09)"/><path class="cls-1" d="M799.45,3396A154.92,154.92,0,0,0,803,3109.52a153.51,153.51,0,0,0-29.92-9.32,160.21,160.21,0,0,0-31.19-3.16,162.56,162.56,0,0,0-31.19,3.16,155,155,0,0,0-81,44.69,154.88,154.88,0,0,0-29.2,170.7,155.63,155.63,0,0,0,65.88,71.8l.94-.88a145.13,145.13,0,0,1,20.81-259.17,144.79,144.79,0,0,1,53.72-10.3,144.28,144.28,0,0,1,53.71,10.32A146.92,146.92,0,0,1,820.1,3140a148.56,148.56,0,0,1,21.76,17.09A146.2,146.2,0,0,1,874,3202.33a144.72,144.72,0,0,1-74.83,193l-2.57,1.06.44.54C797.85,3396.61,798.65,3396.29,799.45,3396Z" transform="translate(820.06 587.09)"/><path class="cls-1" d="M1742.08,2335h-1c.17.33.33.67.49,1h1C1742.4,2335.67,1742.24,2335.33,1742.08,2335ZM1738,2513.05v2.24l1-1.94v-2.22Z" transform="translate(820.06 587.09)"/><path class="cls-1" d="M1634.84,2259.12a195.35,195.35,0,0,0-109.94-10.58,192.27,192.27,0,0,0-35.75,10.56A195,195,0,0,0,1470,2612h-2.24a204.92,204.92,0,0,1,53.35-382.88,205.76,205.76,0,0,1,81.89,0,204.8,204.8,0,0,1,146.63,283.59A205.67,205.67,0,0,1,1648,2616.08v-1a194.94,194.94,0,0,0,49.3-315.38,195.72,195.72,0,0,0-62.46-40.58Z" transform="translate(820.06 587.09)"/></svg>