<svg id="Layer_1" data-name="Layer 1" xmlns="http://www.w3.org/2000/svg" viewBox="0 0 717 722"><defs><style>.cls-1{fill:#e9c255;}</style></defs><path class="cls-1" d="M712,359a353.58,353.58,0,0,1-58.34,194.88A355.79,355.79,0,0,1,497.09,685.14a353.92,353.92,0,0,1-66,21A354.83,354.83,0,0,1,29.71,496.64,354.47,354.47,0,0,1,9,429.21,355.85,355.85,0,0,1,9,288.79,354.49,354.49,0,0,1,362,4a358.38,358.38,0,0,1,69.07,7.81A355,355,0,0,1,712,359Zm0,0a354,354,0,0,0-6.8-68.27A344.78,344.78,0,0,0,172,74.55,345.82,345.82,0,0,0,47.53,228.75,345.44,345.44,0,0,0,28.42,425.37,340.94,340.94,0,0,0,47.5,489.26a344.95,344.95,0,0,0,657.7-62A354,354,0,0,0,712,359Z"/></svg>