<svg id="Layer_1" data-name="Layer 1" xmlns="http://www.w3.org/2000/svg" viewBox="0 0 717 722"><defs><style>.cls-1{fill:#e9c255;}</style></defs><path class="cls-1" d="M558,359a204.42,204.42,0,0,1-14.88,76.68,204.95,204.95,0,0,1-391-35.74,205.76,205.76,0,0,1,0-81.89A204.8,204.8,0,0,1,435.7,171.42a205.71,205.71,0,0,1,107.43,110.9A203.56,203.56,0,0,1,554.26,320,201.44,201.44,0,0,1,558,359Zm0,0a201.77,201.77,0,0,0-3.93-39A194.91,194.91,0,0,0,222.7,223.7a195.72,195.72,0,0,0-40.58,62.46A195.35,195.35,0,0,0,171.54,396.1a192.27,192.27,0,0,0,10.56,35.75,194.94,194.94,0,0,0,372-33.85A201.77,201.77,0,0,0,558,359Z"/></svg>