<svg id="Layer_1" data-name="Layer 1" xmlns="http://www.w3.org/2000/svg" viewBox="0 0 717 722"><defs><style>.cls-1{fill:#e9c255;}</style></defs><path class="cls-1" d="M512,361a154.22,154.22,0,0,1-11.08,57.54,154.95,154.95,0,0,1-295.76-26.35A162.64,162.64,0,0,1,202,361a160.21,160.21,0,0,1,3.16-31.19,153.51,153.51,0,0,1,9.32-29.92,155.11,155.11,0,0,1,286.45,3.57A154.48,154.48,0,0,1,512,361Zm0,0a151.17,151.17,0,0,0-3-29.25,144.93,144.93,0,0,0-247-70.7A148.56,148.56,0,0,0,245,282.81a146.92,146.92,0,0,0-12.64,24.48A144.28,144.28,0,0,0,222,361a144.79,144.79,0,0,0,10.3,53.72A144.95,144.95,0,0,0,509,390.25,151.17,151.17,0,0,0,512,361Z"/></svg>